<svg xmlns="http://www.w3.org/2000/svg" xmlns:xlink="http://www.w3.org/1999/xlink" width="500" zoomAndPan="magnify" viewBox="0 0 375 374.999991" height="500" preserveAspectRatio="xMidYMid meet" version="1.0"><defs><g/><clipPath id="id1"><path d="M 179.542969 69.421875 L 192.292969 69.421875 L 192.292969 82.171875 L 179.542969 82.171875 Z M 179.542969 69.421875 " clip-rule="nonzero"/></clipPath><clipPath id="id2"><path d="M 274.335938 158.101562 L 287.085938 158.101562 L 287.085938 170.851562 L 274.335938 170.851562 Z M 274.335938 158.101562 " clip-rule="nonzero"/></clipPath><clipPath id="id3"><path d="M 179.96875 249.300781 L 191.21875 249.300781 L 191.21875 260.550781 L 179.96875 260.550781 Z M 179.96875 249.300781 " clip-rule="nonzero"/></clipPath><clipPath id="id4"><path d="M 92.671875 158.101562 L 105.421875 158.101562 L 105.421875 170.851562 L 92.671875 170.851562 Z M 92.671875 158.101562 " clip-rule="nonzero"/></clipPath><clipPath id="id5"><path d="M 211.046875 104.148438 L 220.796875 104.148438 L 220.796875 113.898438 L 211.046875 113.898438 Z M 211.046875 104.148438 " clip-rule="nonzero"/></clipPath><clipPath id="id6"><path d="M 232.585938 131.964844 L 242.335938 131.964844 L 242.335938 141.714844 L 232.585938 141.714844 Z M 232.585938 131.964844 " clip-rule="nonzero"/></clipPath><clipPath id="id7"><path d="M 154.835938 212.167969 L 164.585938 212.167969 L 164.585938 221.917969 L 154.835938 221.917969 Z M 154.835938 212.167969 " clip-rule="nonzero"/></clipPath><clipPath id="id8"><path d="M 127.660156 190.628906 L 137.410156 190.628906 L 137.410156 200.378906 L 127.660156 200.378906 Z M 127.660156 190.628906 " clip-rule="nonzero"/></clipPath></defs><g clip-path="url(#id1)"><path fill="#ffffff" d="M 185.917969 69.421875 C 182.398438 69.421875 179.542969 72.277344 179.542969 75.796875 C 179.542969 79.320312 182.398438 82.171875 185.917969 82.171875 C 189.4375 82.171875 192.292969 79.320312 192.292969 75.796875 C 192.292969 72.277344 189.4375 69.421875 185.917969 69.421875 " fill-opacity="1" fill-rule="nonzero"/></g><g fill="#ffffff" fill-opacity="1"><g transform="translate(101.569867, 144.450701)"><g><path d="M 54.125 0 L 17.5625 0 C 14.175781 0 11.296875 -1.1875 8.921875 -3.5625 C 6.546875 -5.945312 5.359375 -8.828125 5.359375 -12.203125 L 13.484375 -12.203125 C 13.484375 -11.085938 13.878906 -10.128906 14.671875 -9.328125 C 15.472656 -8.535156 16.4375 -8.140625 17.5625 -8.140625 L 54.125 -8.140625 C 55.25 -8.140625 56.207031 -8.535156 57 -9.328125 C 57.800781 -10.128906 58.203125 -11.085938 58.203125 -12.203125 L 58.203125 -17.453125 C 58.203125 -18.585938 57.800781 -19.546875 57 -20.328125 C 56.207031 -21.117188 55.25 -21.515625 54.125 -21.515625 L 17.5625 -21.515625 C 14.175781 -21.515625 11.296875 -22.707031 8.921875 -25.09375 C 6.546875 -27.488281 5.359375 -30.363281 5.359375 -33.71875 L 5.359375 -39 C 5.359375 -42.351562 6.546875 -45.21875 8.921875 -47.59375 C 11.296875 -49.976562 14.175781 -51.171875 17.5625 -51.171875 L 54.125 -51.171875 C 57.476562 -51.171875 60.347656 -49.976562 62.734375 -47.59375 C 65.128906 -45.21875 66.328125 -42.351562 66.328125 -39 L 58.203125 -39 C 58.203125 -40.113281 57.800781 -41.0625 57 -41.84375 C 56.207031 -42.632812 55.25 -43.03125 54.125 -43.03125 L 17.5625 -43.03125 C 16.4375 -43.03125 15.472656 -42.632812 14.671875 -41.84375 C 13.878906 -41.0625 13.484375 -40.113281 13.484375 -39 L 13.484375 -33.71875 C 13.484375 -32.601562 13.878906 -31.644531 14.671875 -30.84375 C 15.472656 -30.050781 16.4375 -29.65625 17.5625 -29.65625 L 54.125 -29.65625 C 57.476562 -29.65625 60.347656 -28.460938 62.734375 -26.078125 C 65.128906 -23.703125 66.328125 -20.828125 66.328125 -17.453125 L 66.328125 -12.203125 C 66.328125 -8.828125 65.128906 -5.945312 62.734375 -3.5625 C 60.347656 -1.1875 57.476562 0 54.125 0 Z M 54.125 0 "/></g></g></g><g fill="#ffffff" fill-opacity="1"><g transform="translate(204.276349, 235.697769)"><g><path d="M 32.359375 0 L 24.234375 0 L 24.234375 -43.0625 L 1.078125 -43.0625 L 1.078125 -51.171875 L 55.5625 -51.171875 L 55.5625 -43.0625 L 32.359375 -43.0625 Z M 32.359375 0 "/></g></g></g><path stroke-linecap="butt" transform="matrix(1.501298, 0.000000000000000165, -0.000000000000000182, 1.655172, 96.700985, 165.159424)" fill="none" stroke-linejoin="miter" d="M -0.00117672 0.00044267 L 117.399871 0.00044267 " stroke="#ffffff" stroke-width="1" stroke-opacity="1" stroke-miterlimit="4"/><path stroke-linecap="butt" transform="matrix(0.000000000000000092, -1.501298, 1.655172, 0.000000000000000101, 185.57866, 255.101527)" fill="none" stroke-linejoin="miter" d="M -0.0000234808 -0.000323419 L 117.398422 -0.000323419 " stroke="#ffffff" stroke-width="1" stroke-opacity="1" stroke-miterlimit="4"/><path stroke-linecap="butt" transform="matrix(1.488372, 0.000000000000000006, -0.000000000000000007, 1.92, 185.771037, 108.982889)" fill="none" stroke-linejoin="miter" d="M -0.00101174 0.00077404 L 17.139675 0.00077404 " stroke="#ffffff" stroke-width="1" stroke-opacity="1" stroke-miterlimit="4"/><path stroke-linecap="butt" transform="matrix(1.49766, 0.000000000000000006, -0.000000000000000007, 1.92, 185.771037, 136.799581)" fill="none" stroke-linejoin="miter" d="M -0.00100547 0.00062533 L 35.061509 0.00062533 " stroke="#ffffff" stroke-width="1" stroke-opacity="1" stroke-miterlimit="4"/><g clip-path="url(#id2)"><path fill="#ffffff" d="M 280.710938 158.101562 C 277.1875 158.101562 274.335938 160.957031 274.335938 164.476562 C 274.335938 168 277.1875 170.851562 280.710938 170.851562 C 284.230469 170.851562 287.085938 168 287.085938 164.476562 C 287.085938 160.957031 284.230469 158.101562 280.710938 158.101562 " fill-opacity="1" fill-rule="nonzero"/></g><g clip-path="url(#id3)"><path fill="#ffffff" d="M 185.59375 249.300781 C 182.488281 249.300781 179.96875 251.820312 179.96875 254.925781 C 179.96875 258.035156 182.488281 260.550781 185.59375 260.550781 C 188.703125 260.550781 191.21875 258.035156 191.21875 254.925781 C 191.21875 251.820312 188.703125 249.300781 185.59375 249.300781 " fill-opacity="1" fill-rule="nonzero"/></g><g clip-path="url(#id4)"><path fill="#ffffff" d="M 99.046875 158.101562 C 95.527344 158.101562 92.671875 160.957031 92.671875 164.476562 C 92.671875 168 95.527344 170.851562 99.046875 170.851562 C 102.566406 170.851562 105.421875 168 105.421875 164.476562 C 105.421875 160.957031 102.566406 158.101562 99.046875 158.101562 " fill-opacity="1" fill-rule="nonzero"/></g><g clip-path="url(#id5)"><path fill="#ffffff" d="M 215.921875 104.148438 C 213.230469 104.148438 211.046875 106.328125 211.046875 109.023438 C 211.046875 111.714844 213.230469 113.898438 215.921875 113.898438 C 218.613281 113.898438 220.796875 111.714844 220.796875 109.023438 C 220.796875 106.328125 218.613281 104.148438 215.921875 104.148438 " fill-opacity="1" fill-rule="nonzero"/></g><g clip-path="url(#id6)"><path fill="#ffffff" d="M 237.460938 131.964844 C 234.769531 131.964844 232.585938 134.144531 232.585938 136.839844 C 232.585938 139.53125 234.769531 141.714844 237.460938 141.714844 C 240.152344 141.714844 242.335938 139.53125 242.335938 136.839844 C 242.335938 134.144531 240.152344 131.964844 237.460938 131.964844 " fill-opacity="1" fill-rule="nonzero"/></g><path stroke-linecap="butt" transform="matrix(0.000000000000000092, 1.49766, -1.92, 0.000000000000000118, 159.743065, 165.355288)" fill="none" stroke-linejoin="miter" d="M 0.000120994 0.000457141 L 35.062636 0.000457141 " stroke="#ffffff" stroke-width="1" stroke-opacity="1" stroke-miterlimit="4"/><g clip-path="url(#id7)"><path fill="#ffffff" d="M 164.585938 217.042969 C 164.585938 214.351562 162.40625 212.167969 159.710938 212.167969 C 157.019531 212.167969 154.835938 214.351562 154.835938 217.042969 C 154.835938 219.734375 157.019531 221.917969 159.710938 221.917969 C 162.40625 221.917969 164.585938 219.734375 164.585938 217.042969 " fill-opacity="1" fill-rule="nonzero"/></g><path stroke-linecap="butt" transform="matrix(0.000000000000000091, 1.488372, -1.92, 0.000000000000000118, 132.567461, 165.354217)" fill="none" stroke-linejoin="miter" d="M 0.000840924 0.000549555 L 17.138903 0.000549555 " stroke="#ffffff" stroke-width="1" stroke-opacity="1" stroke-miterlimit="4"/><g clip-path="url(#id8)"><path fill="#ffffff" d="M 137.410156 195.503906 C 137.410156 192.8125 135.226562 190.628906 132.535156 190.628906 C 129.84375 190.628906 127.660156 192.8125 127.660156 195.503906 C 127.660156 198.195312 129.84375 200.378906 132.535156 200.378906 C 135.226562 200.378906 137.410156 198.195312 137.410156 195.503906 " fill-opacity="1" fill-rule="nonzero"/></g></svg>